<svg id="svg" version="1.1" width="400" height="400" viewBox="0 0 400 400" xmlns="http://www.w3.org/2000/svg" xmlns:xlink="http://www.w3.org/1999/xlink" ><g id="svgg"><path id="path0" d="M170.498 89.029 C 168.928 90.014,165.136 93.420,157.347 100.842 C 120.057 136.370,96.716 175.530,89.282 215.039 C 88.918 216.973,88.463 219.170,88.270 219.922 C 86.855 225.438,85.563 250.954,86.644 252.034 C 87.311 252.702,93.439 253.802,105.664 255.449 C 107.383 255.681,109.844 256.043,111.133 256.255 C 120.554 257.800,172.107 260.768,175.724 259.973 C 177.204 259.649,177.602 258.972,178.722 254.883 C 179.631 251.562,185.631 230.740,190.258 214.844 C 191.791 209.580,193.543 203.516,194.153 201.367 C 195.656 196.075,203.526 168.829,205.718 161.328 C 206.692 157.998,208.287 152.549,209.262 149.219 C 211.372 142.018,211.540 141.192,210.962 140.835 C 210.719 140.685,206.615 140.831,201.842 141.159 C 190.517 141.937,177.466 142.301,172.893 141.965 L 169.251 141.698 168.708 138.329 C 167.996 133.921,167.978 117.264,168.679 111.914 C 169.901 102.576,170.376 99.494,171.368 94.434 C 172.528 88.523,172.415 87.826,170.498 89.029 M224.609 142.277 C 223.766 142.725,211.278 184.228,207.477 199.219 C 207.286 199.971,205.954 204.629,204.516 209.570 C 203.078 214.512,201.281 220.752,200.524 223.438 C 196.890 236.322,194.364 245.086,193.148 249.023 C 192.618 250.742,192.185 252.344,192.186 252.583 C 192.187 252.822,191.650 254.712,190.993 256.783 C 189.318 262.063,187.999 261.695,204.492 260.550 C 213.219 259.944,231.249 259.987,231.876 260.616 C 234.754 263.497,233.424 291.691,229.550 309.923 C 228.948 312.755,229.035 313.672,229.906 313.672 C 231.645 313.672,253.818 292.152,262.514 282.025 C 286.495 254.098,299.799 230.606,308.744 200.391 C 310.466 194.573,312.584 184.500,313.261 178.906 C 313.508 176.865,313.874 174.229,314.075 173.047 C 314.858 168.446,315.485 150.999,314.901 150.079 C 314.038 148.719,293.223 145.568,275.586 144.128 C 263.463 143.138,260.875 142.988,249.023 142.588 C 242.148 142.356,234.063 142.075,231.055 141.962 C 226.931 141.808,225.346 141.885,224.609 142.277 " stroke="none" fill="#fdfdfd" fill-rule="evenodd"></path><path id="path1" d="M60.938 40.462 C 60.400 40.760,59.202 41.007,58.275 41.010 C 57.110 41.014,56.204 41.305,55.345 41.949 C 54.661 42.463,53.529 43.004,52.830 43.153 C 51.104 43.519,41.016 53.589,41.016 54.946 C 41.016 55.448,40.861 55.859,40.671 55.859 C 40.163 55.859,37.891 58.275,37.891 58.815 C 37.891 59.071,37.627 59.498,37.305 59.766 C 36.982 60.033,36.719 60.560,36.719 60.938 C 36.719 61.315,36.455 61.842,36.133 62.109 C 35.811 62.377,35.547 63.068,35.547 63.645 C 35.547 64.222,35.289 65.036,34.973 65.453 C 34.658 65.870,34.394 66.661,34.387 67.210 C 34.381 67.760,34.117 68.551,33.801 68.968 C 32.932 70.118,32.907 348.678,33.777 349.828 C 34.092 350.245,34.356 351.036,34.363 351.585 C 34.369 352.135,34.633 352.926,34.949 353.343 C 35.264 353.760,35.528 354.442,35.534 354.857 C 35.552 355.906,36.971 358.738,37.900 359.579 C 38.325 359.963,38.672 360.508,38.672 360.789 C 38.672 361.071,39.176 361.878,39.791 362.584 C 40.407 363.290,41.030 364.252,41.177 364.722 C 41.482 365.699,43.920 367.969,44.664 367.969 C 44.936 367.969,45.748 368.576,46.468 369.319 C 47.188 370.062,49.112 371.306,50.744 372.084 C 52.376 372.861,54.178 373.748,54.748 374.053 C 55.318 374.359,56.143 374.609,56.580 374.609 C 57.018 374.609,57.484 374.785,57.617 375.000 C 57.750 375.215,58.947 375.392,60.277 375.393 C 61.658 375.394,63.175 375.646,63.814 375.979 C 65.514 376.866,334.486 376.866,336.186 375.979 C 336.825 375.646,338.342 375.394,339.723 375.393 C 341.053 375.392,342.250 375.215,342.383 375.000 C 342.516 374.785,342.982 374.609,343.420 374.609 C 343.857 374.609,344.682 374.359,345.252 374.053 C 345.822 373.748,347.624 372.861,349.256 372.084 C 350.888 371.306,352.812 370.062,353.532 369.319 C 354.252 368.576,355.064 367.969,355.336 367.969 C 356.086 367.969,358.521 365.694,358.813 364.722 C 358.954 364.252,359.663 363.247,360.388 362.490 C 361.839 360.974,364.443 356.115,364.464 354.883 C 364.472 354.453,364.736 353.760,365.051 353.343 C 365.367 352.926,365.631 352.135,365.637 351.585 C 365.644 351.036,365.908 350.245,366.223 349.828 C 367.053 348.731,367.098 69.656,366.269 68.029 C 365.978 67.459,365.451 66.438,365.097 65.760 C 364.743 65.082,364.453 64.093,364.453 63.562 C 364.453 63.030,364.189 62.377,363.867 62.109 C 363.545 61.842,363.281 61.370,363.281 61.062 C 363.281 60.173,360.881 56.742,359.887 56.210 C 359.370 55.934,358.984 55.365,358.984 54.880 C 358.984 53.586,348.828 43.504,347.170 43.153 C 346.471 43.004,345.339 42.463,344.655 41.949 C 343.794 41.303,342.893 41.015,341.725 41.013 C 340.798 41.012,339.536 40.748,338.920 40.427 C 337.291 39.578,62.470 39.612,60.938 40.462 M171.368 94.434 C 170.376 99.494,169.901 102.576,168.679 111.914 C 167.978 117.264,167.996 133.921,168.708 138.329 L 169.251 141.698 172.893 141.965 C 177.466 142.301,190.517 141.937,201.842 141.159 C 206.615 140.831,210.719 140.685,210.962 140.835 C 211.540 141.192,211.372 142.018,209.262 149.219 C 208.287 152.549,206.692 157.998,205.718 161.328 C 203.526 168.829,195.656 196.075,194.153 201.367 C 193.543 203.516,191.791 209.580,190.258 214.844 C 185.631 230.740,179.631 251.562,178.722 254.883 C 177.602 258.972,177.204 259.649,175.724 259.973 C 172.107 260.768,120.554 257.800,111.133 256.255 C 109.844 256.043,107.383 255.681,105.664 255.449 C 93.439 253.802,87.311 252.702,86.644 252.034 C 85.563 250.954,86.855 225.438,88.270 219.922 C 88.463 219.170,88.918 216.973,89.282 215.039 C 95.338 182.856,111.328 152.024,138.202 120.711 C 146.092 111.518,166.388 91.608,170.498 89.029 C 172.415 87.826,172.528 88.523,171.368 94.434 M249.023 142.588 C 260.875 142.988,263.463 143.138,275.586 144.128 C 293.223 145.568,314.038 148.719,314.901 150.079 C 315.485 150.999,314.858 168.446,314.075 173.047 C 313.874 174.229,313.508 176.865,313.261 178.906 C 312.584 184.500,310.466 194.573,308.744 200.391 C 299.799 230.606,286.495 254.098,262.514 282.025 C 253.818 292.152,231.645 313.672,229.906 313.672 C 229.035 313.672,228.948 312.755,229.550 309.923 C 233.424 291.691,234.754 263.497,231.876 260.616 C 231.249 259.987,213.219 259.944,204.492 260.550 C 187.999 261.695,189.318 262.063,190.993 256.783 C 191.650 254.712,192.187 252.822,192.186 252.583 C 192.185 252.344,192.618 250.742,193.148 249.023 C 194.364 245.086,196.890 236.322,200.524 223.438 C 201.281 220.752,203.078 214.512,204.516 209.570 C 205.954 204.629,207.286 199.971,207.477 199.219 C 207.668 198.467,211.381 185.464,215.728 170.324 C 224.971 138.136,223.065 141.663,231.055 141.962 C 234.063 142.075,242.148 142.356,249.023 142.588 " stroke="none" fill="#f32548" fill-rule="evenodd"></path></g></svg>